<svg xmlns="http://www.w3.org/2000/svg" xmlns:xlink="http://www.w3.org/1999/xlink" width="492" height="279" viewBox="0 0 492 279">
    <defs>
        <path id="a" d="M282.235 129.487h-.426c0-.423.426-.847.851-.847h1.28l24.226 28.021v-26.324c0-.425.427-1.273 1.27-1.273h3.401c.427 0 .854.423.854 1.273v37.79c0 .424-.427.847-.854.847h-1.269l-24.236-28.872v27.174c0 .425-.416.851-.843.851h-3.402c-.427 0-.852-.426-.852-.851v-37.789zm141.124 8.068c5.94 0 11.037 5.095 11.037 11.465 0 5.944-4.671 11.04-11.037 11.04-5.96 0-11.058-5.096-11.058-11.04 0-6.37 5.098-11.465 11.058-11.465zm0 31.42c11.463 0 20.398-8.916 20.398-19.955 0-11.465-9.361-20.38-20.398-20.38-11.058 0-19.982 8.915-19.982 20.38 0 11.04 8.497 19.954 19.982 19.954zM137.72 151.987h4.672c2.127 0 4.68 1.702 4.68 3.823 0 2.55-1.705 4.248-3.828 4.248h-5.524v-8.07zm.422-15.284h4.25a3.807 3.807 0 0 1 3.823 3.826c0 2.545-1.696 4.245-3.823 4.245v-.427h-4.25v-7.644zm-7.65 31.423h14.027c6.798 0 12.326-4.245 12.326-10.616 0-5.523-4.676-8.07-7.651-9.344 2.545-1.273 6.377-4.669 6.377-8.914 0-5.944-5.102-10.613-11.9-10.613h-13.18c-.425 0-.848.847-.848 1.272v37.364c0 .425.423.851.848.851zm28.053-37.365c-.425-.85 0-1.698.848-1.698h7.23c.426 0 .847.423.847.423l7.651 11.466 7.656-11.466c0-.423.421-.423.844-.423h7.66c.843 0 1.268.848.843 1.698l-12.753 18.68v17.834c0 .425-.421.851-.848.851h-6.803c-.421 0-1.274-.426-1.274-.851v-17.834h.426l-12.327-18.68zm35.706 18.258c.425-11.465 9.346-20.38 20.403-20.38 5.524 0 9.777 1.697 13.601 5.094.427.423.427 1.276 0 1.697l-2.554 2.55c-.425.424-.843.424-1.27 0-2.552-2.127-6.381-3.824-9.777-3.824-8.077 0-14.026 6.796-14.026 14.438 0 7.643 5.95 14.435 14.026 14.435 4.245 0 6.798-1.699 9.777-3.822.427-.425.845-.425 1.27 0l2.554 2.548c.427.425.427 1.274 0 1.698-3.824 3.822-8.503 5.52-13.6 5.52-11.058 0-20.404-8.915-20.404-19.954zM59.936 136.704h8.498c2.127 0 4.254 1.701 4.254 4.25 0 2.544-2.127 4.668-4.254 4.668h-8.498v-8.918zm-7.651 31.423h6.797c.427 0 .854-.426.854-.851v-14.433h3.823L71.41 167.7s.426.426.848.426h7.654c.844 0 1.275-.851.844-1.698l-7.646-14.44c5.102-2.12 8.504-6.367 8.504-11.46 0-6.372-5.524-11.889-12.33-11.889H52.706c-.848 0-1.274.847-1.274 1.272h-.427v37.364c0 .425.853.851 1.279.851zm-39.96 22.5H480.31v-84.916H12.325v84.916zm254.609 49.68l16.153-37.363h16.145l-32.298 37.363zm-20.823 18.26l-23.623-55.623h47.42l-23.797 55.622zm-52.764-55.623h15.96l15.97 36.936-31.93-36.936zm-63.28-185.126l22.53 52.65H88.834l41.233-52.65zm33.402 76.004H99.94l-9.4-10.614h68.434l4.496 10.614zm71.585-81.948l-70.558 55.198-23.378-55.198h93.936zm86.517 71.334l-4.349 10.614H176.643l-4.495-10.614H321.57zm-7.028-12.74H179.372l72.686-56.469 62.485 56.469zm36.979-58.594l-23.374 54.347-59.935-54.347h83.309zm52.707 71.334l-9.401 10.614h-63.402l4.508-10.614h68.295zM363.423 18.67l41.224 52.648h-63.662L353.33 42.25l10.092-23.581zm128.36 177.906V99.766c0-3.4-2.548-5.944-5.95-5.944h-74.858l11.104-12.74s.417-.847.853-1.273c.427-.424.427-1.273.427-1.273 0-3.29-2.559-5.945-2.559-5.945L365.544 2.11l-.425-.427-.427-.423c-.417 0-.417-.424-.844-.424 0 0-.425 0-.425-.426H129.219s-.427 0-.427.426c-.421 0-.421.424-.848.424 0 0-.427 0-.427.423l-.425.427-55.256 70.909s0 .42-.426.42l-.427.424v4.673c0 .384 10.698 12.823 12.818 15.286H5.955C2.553 93.822 0 96.367 0 99.766v97.232c0 3.395 2.553 5.946 5.955 5.946H177.19l64.24 74.728.426.422s.426 0 .426.425h.422s.425 0 .425.424H248.234s.42 0 .42-.424h.428s.428 0 .428-.425l.417-.422 63.888-74.728H486.26c3.4 0 5.95-2.976 5.523-6.37zm-167.045-29.722v-36.94h.427c0-.426.425-1.273 1.269-1.273h22.104c.436 0 .853.424.853 1.272v2.973c0 .424-.417 1.272-.853 1.272h-17.842v12.737h14.867c.426 0 .853.426.853 1.273v2.976c0 .422-.427.845-.853.845h-14.867v14.865c0 .423-.435.848-.852.848h-3.827c-.427 0-1.279-.425-1.279-.848zm40.806-17.833c.427-11.465 9.351-20.38 20.409-20.38 5.523 0 9.778 1.697 13.596 5.094.426.423.426 1.276 0 1.697l-4.254 4.245c-.426.426-.844.426-1.27 0-2.131-1.694-4.68-2.972-7.645-2.972-6.387 0-11.066 5.096-11.066 11.463 0 6.368 4.679 11.466 11.066 11.466 2.548 0 5.514-.85 7.645-2.545.426-.427 1.27-.427 1.27 0l4.254 4.668c.426.425.426 1.274 0 1.698-3.818 3.822-8.499 5.52-13.596 5.52-11.058 0-20.409-8.915-20.409-19.954zm-12.326 14.862c0-3.402 2.133-5.52 5.107-5.52 2.966 0 5.523 2.544 5.523 5.52 0 2.97-2.557 5.092-5.523 5.092-2.974 0-5.107-2.545-5.107-5.092zM88.41 152.842v-22.93c0-.425.423-1.272 1.28-1.272h6.793c.427 0 .854.424.854 1.272v22.504c0 3.822 2.979 7.217 6.806 7.217 4.245 0 7.224-2.972 7.224-7.217v-22.504c0-.425.426-1.272.844-1.272h6.802c.427 0 1.275.424 1.275 1.272v22.93c0 8.49-7.225 15.709-16.145 15.709-8.93 0-15.733-7.22-15.733-15.708zm164.926-18.685c8.072 0 14.449 6.373 14.449 14.438 0 8.066-6.377 14.435-14.449 14.435-7.653 0-14.46-6.369-14.46-14.435 0-7.642 6.376-14.438 14.46-14.438zm0 34.817c11.474 0 20.399-8.915 20.399-19.954 0-11.465-9.352-20.38-20.399-20.38-11.054 0-19.983 8.915-19.983 20.38 0 11.04 8.929 19.954 19.983 19.954z"/>
    </defs>
    <use fill="#FFFFFF" fill-rule="evenodd" xlink:href="#a"/>
</svg>
