<?xml version="1.0" encoding="UTF-8" standalone="no"?>
<svg width="156px" height="60px" viewBox="0 0 156 60" version="1.1" xmlns="http://www.w3.org/2000/svg" xmlns:xlink="http://www.w3.org/1999/xlink">
    <!-- Generator: sketchtool 42 (36781) - http://www.bohemiancoding.com/sketch -->
    <title>E15D9AAC-3FA0-41B5-B1D6-BCDD64C9EDBD</title>
    <desc>Created with sketchtool.</desc>
    <defs>
        <polygon id="path-1" points="30.0483763 0.346 0.64700339 0.346 0.64700339 28.9570667 30.0483763 28.9570667 30.0483763 0.346"></polygon>
        <polygon id="path-3" points="0 59.6539333 155.964305 59.6539333 155.964305 0.6666 0 0.6666"></polygon>
    </defs>
    <g id="Page-1" stroke="none" stroke-width="1" fill="none" fill-rule="evenodd">
        <g id="Landing-expectativa" transform="translate(-104.000000, -73.000000)">
            <g id="Logo-Ruby" transform="translate(104.000000, 73.000000)">
                <path d="M37.2497593,11.5243333 C40.0108271,11.5243333 42.4790644,12.5556667 44.1402,14.5203333 L46.5463017,12.4136667 L39.3544373,1.66166667 L34.6513017,11.5243333 L37.2497593,11.5243333 Z" id="Fill-1" fill="#FFFFFF"></path>
                <polygon id="Fill-3" fill="#FFFFFF" points="0 12.1923333 21.0243051 29.6456667 7.26722034 1.31166667"></polygon>
                <g id="Group-7" transform="translate(7.932203, 0.320600)">
                    <mask id="mask-2" fill="white">
                        <use xlink:href="#path-1"></use>
                    </mask>
                    <g id="Clip-6"></g>
                    <polygon id="Fill-5" fill="#FFFFFF" mask="url(#mask-2)" points="14.5224102 11.2037333 24.9730881 11.2037333 30.0483763 0.517066667 0.64700339 0.345733333 14.5224102 28.9570667"></polygon>
                </g>
                <path d="M31.0765881,25.3371333 L34.0253847,25.3371333 C37.2742831,25.3371333 38.8990627,24.0718 38.8990627,21.5404667 C38.8990627,20.2884667 38.4892322,19.4144667 37.6702322,18.9184667 C36.8512322,18.4231333 35.6362831,18.1744667 34.0253847,18.1744667 L31.0765881,18.1744667 L31.0765881,25.3371333 Z M39.3498763,39.5838 L34.2303,29.9164667 L31.0765881,29.9164667 L31.0765881,39.5838 L25.0553847,39.5838 L25.0553847,13.5951333 L34.5171814,13.5951333 C35.9363847,13.5951333 37.2670119,13.7264667 38.5097237,13.9864667 C39.7524356,14.2478 40.8450966,14.6851333 41.7863847,15.2978 C42.7289949,15.9111333 43.472639,16.7264667 44.018639,17.7444667 C44.564639,18.7618 44.8383,20.0278 44.8383,21.5404667 C44.8383,23.4198 44.4007068,24.9651333 43.5275034,26.1784667 C42.653639,27.3918 41.5067746,28.2991333 40.0869102,28.8991333 L46.1074525,39.5838 L39.3498763,39.5838 Z" id="Fill-8" fill="#FFFFFF"></path>
                <mask id="mask-4" fill="white">
                    <use xlink:href="#path-3"></use>
                </mask>
                <g id="Clip-11"></g>
                <polygon id="Fill-10" fill="#FFFFFF" mask="url(#mask-4)" points="23.2188814 46.2252667 47.9455424 46.2252667 47.9455424 43.8766 23.2188814 43.8766"></polygon>
                <polygon id="Fill-12" fill="#FFFFFF" mask="url(#mask-4)" points="48.0308136 46.2252667 72.7574746 46.2252667 72.7574746 43.8766 48.0308136 43.8766"></polygon>
                <path d="M50.7282254,13.5953333 L56.7487678,13.5953333 L56.7487678,29.8773333 C56.7487678,31.4173333 57.0488695,32.5913333 57.6497339,33.4 C58.2499373,34.2086667 59.1925475,34.6133333 60.4762424,34.6133333 C61.7586153,34.6133333 62.7078356,34.2086667 63.3225814,33.4 C63.9373271,32.5913333 64.244039,31.4173333 64.244039,29.8773333 L64.244039,13.5953333 L70.0603271,13.5953333 L70.0603271,29.2906667 C70.0603271,32.6306667 69.275039,35.1806667 67.7051237,36.942 C66.1345475,38.7033333 63.7251407,39.584 60.4762424,39.584 C57.1995814,39.584 54.7551407,38.7033333 53.1449034,36.942 C51.5333441,35.1806667 50.7282254,32.6306667 50.7282254,29.2906667 L50.7282254,13.5953333 Z" id="Fill-13" fill="#FFFFFF" mask="url(#mask-4)"></path>
                <path d="M97.449961,55.9618 C97.449961,55.3704667 97.5530797,54.8451333 97.759978,54.3844667 C97.9662153,53.9244667 98.2471475,53.5344667 98.6027746,53.2144667 C98.9584017,52.8951333 99.3741814,52.6524667 99.8494525,52.4878 C100.325385,52.3231333 100.827097,52.2411333 101.35591,52.2411333 C101.932317,52.2411333 102.429402,52.3424667 102.847164,52.5458 C103.265588,52.7491333 103.618571,52.9918 103.906775,53.2724667 L103.315825,54.0431333 C103.027622,53.7911333 102.72752,53.5924667 102.414859,53.4471333 C102.102859,53.3011333 101.763758,53.2291333 101.398876,53.2291333 C100.995656,53.2291333 100.625486,53.2944667 100.289029,53.4251333 C99.9525712,53.5564667 99.6670119,53.7424667 99.4316898,53.9851333 C99.1963678,54.2271333 99.0112831,54.5158 98.8770966,54.8498 C98.7422492,55.1844667 98.6748254,55.5544667 98.6748254,55.9618 C98.6748254,56.3691333 98.7402661,56.7371333 98.8698254,57.0664667 C98.9993847,57.3964667 99.1818254,57.6791333 99.4171475,57.9164667 C99.6524695,58.1544667 99.9360458,58.3384667 100.267876,58.4691333 C100.599046,58.5998 100.966571,58.6651333 101.370453,58.6651333 C101.802758,58.6651333 102.198707,58.5811333 102.558961,58.4111333 C102.919876,58.2418 103.248402,58.0311333 103.54652,57.7784667 L104.065419,58.5491333 C103.680707,58.8978 103.251046,59.1691333 102.775114,59.3631333 C102.299842,59.5571333 101.802758,59.6538 101.283859,59.6538 C100.735876,59.6538 100.228876,59.5711333 99.7635203,59.4064667 C99.2968424,59.2424667 98.890978,59.0018 98.5452661,58.6871333 C98.1995542,58.3724667 97.9305203,57.9844667 97.7381644,57.5244667 C97.5458085,57.0644667 97.449961,56.5431333 97.449961,55.9618" id="Fill-14" fill="#FFFFFF" mask="url(#mask-4)"></path>
                <path d="M107.034046,55.9618 C107.034046,56.3691333 107.086927,56.7371333 107.19269,57.0664667 C107.298453,57.3964667 107.449825,57.6791333 107.646808,57.9164667 C107.843131,58.1544667 108.079114,58.3384667 108.352775,58.4691333 C108.626436,58.5998 108.931825,58.6651333 109.267622,58.6651333 C109.60408,58.6651333 109.909469,58.5998 110.183131,58.4691333 C110.456792,58.3384667 110.692114,58.1544667 110.889097,57.9164667 C111.08608,57.6791333 111.237453,57.3964667 111.343215,57.0664667 C111.448978,56.7371333 111.501859,56.3691333 111.501859,55.9618 C111.501859,55.5544667 111.448978,55.1844667 111.343215,54.8498 C111.237453,54.5158 111.08608,54.2271333 110.889097,53.9851333 C110.692114,53.7424667 110.456792,53.5564667 110.183131,53.4251333 C109.909469,53.2944667 109.60408,53.2291333 109.267622,53.2291333 C108.931825,53.2291333 108.626436,53.2944667 108.352775,53.4251333 C108.079114,53.5564667 107.843131,53.7424667 107.646808,53.9851333 C107.449825,54.2271333 107.298453,54.5158 107.19269,54.8498 C107.086927,55.1844667 107.034046,55.5544667 107.034046,55.9618 M105.809181,55.9618 C105.809181,55.3704667 105.902385,54.8451333 106.090114,54.3844667 C106.277181,53.9244667 106.52969,53.5344667 106.846978,53.2144667 C107.163605,52.8951333 107.531131,52.6524667 107.949554,52.4878 C108.367317,52.3231333 108.806893,52.2411333 109.267622,52.2411333 C109.729012,52.2411333 110.168588,52.3231333 110.587012,52.4878 C111.004775,52.6524667 111.3723,52.8951333 111.688927,53.2144667 C112.006215,53.5344667 112.258724,53.9244667 112.445792,54.3844667 C112.63352,54.8451333 112.727385,55.3704667 112.727385,55.9618 C112.727385,56.5431333 112.63352,57.0644667 112.445792,57.5244667 C112.258724,57.9844667 112.006215,58.3724667 111.688927,58.6871333 C111.3723,59.0018 111.004775,59.2424667 110.587012,59.4064667 C110.168588,59.5711333 109.729012,59.6538 109.267622,59.6538 C108.806893,59.6538 108.367317,59.5711333 107.949554,59.4064667 C107.531131,59.2424667 107.163605,59.0018 106.846978,58.6871333 C106.52969,58.3724667 106.277181,57.9844667 106.090114,57.5244667 C105.902385,57.0644667 105.809181,56.5431333 105.809181,55.9618" id="Fill-15" fill="#FFFFFF" mask="url(#mask-4)"></path>
                <path d="M114.932075,52.4152667 L115.912363,52.4152667 L116.013498,53.6212667 L116.071007,53.6212667 C116.435888,53.2246 116.829854,52.8946 117.252905,52.6332667 C117.675295,52.3719333 118.160481,52.2406 118.708464,52.2406 C119.54399,52.2406 120.156753,52.4806 120.546092,52.9599333 C120.934769,53.4399333 121.129769,54.1499333 121.129769,55.0899333 L121.129769,59.4792667 L119.947871,59.4792667 L119.947871,55.2492667 C119.947871,54.5806 119.822939,54.0846 119.573075,53.7592667 C119.32321,53.4352667 118.910075,53.2726 118.333668,53.2726 C118.122142,53.2726 117.927803,53.2992667 117.74999,53.3526 C117.571515,53.4059333 117.396346,53.4859333 117.22382,53.5926 C117.050634,53.6992667 116.87282,53.8319333 116.69038,53.9926 C116.507939,54.1519333 116.315583,54.3386 116.113973,54.5519333 L116.113973,59.4792667 L114.932075,59.4792667 L114.932075,52.4152667 Z" id="Fill-16" fill="#FFFFFF" mask="url(#mask-4)"></path>
                <path d="M130.295695,50.264 C130.007492,50.128 129.740441,50.0386667 129.495864,49.9953333 C129.250627,49.9513333 128.974322,49.9293333 128.666949,49.9293333 C128.033034,49.9293333 127.578915,50.092 127.305254,50.416 C127.031593,50.7413333 126.894102,51.194 126.894102,51.7753333 L126.894102,52.4153333 L129.834305,52.4153333 L129.834305,53.3886667 L126.894102,53.3886667 L126.894102,59.4793333 L125.726746,59.4793333 L125.726746,53.3886667 L123.723864,53.3886667 L123.723864,52.488 L125.726746,52.4153333 L125.726746,51.8186667 C125.726746,50.9566667 125.954797,50.264 126.411559,49.7406667 C126.867661,49.2166667 127.581559,48.9553333 128.551932,48.9553333 C129.243356,48.9553333 129.916271,49.0913333 130.569356,49.3626667 L130.295695,50.264 Z" id="Fill-17" fill="#FFFFFF" mask="url(#mask-4)"></path>
                <path d="M134.042669,58.4330667 C134.042669,58.0644 134.155703,57.7664 134.38111,57.5390667 C134.607178,57.3110667 134.883483,57.1977333 135.210025,57.1977333 C135.536568,57.1977333 135.812873,57.3110667 136.038941,57.5390667 C136.264347,57.7664 136.377381,58.0644 136.377381,58.4330667 C136.377381,58.8010667 136.264347,59.0970667 136.038941,59.3190667 C135.812873,59.5424 135.536568,59.6537333 135.210025,59.6537333 C134.883483,59.6537333 134.607178,59.5424 134.38111,59.3190667 C134.155703,59.0970667 134.042669,58.8010667 134.042669,58.4330667" id="Fill-18" fill="#FFFFFF" mask="url(#mask-4)"></path>
                <path d="M140.686881,55.9618 C140.686881,55.3704667 140.79,54.8451333 140.996898,54.3844667 C141.203136,53.9244667 141.484068,53.5344667 141.839695,53.2144667 C142.195322,52.8951333 142.611102,52.6524667 143.086373,52.4878 C143.562305,52.3231333 144.064017,52.2411333 144.592831,52.2411333 C145.169237,52.2411333 145.666322,52.3424667 146.084085,52.5458 C146.502508,52.7491333 146.855492,52.9918 147.143695,53.2724667 L146.552746,54.0431333 C146.264542,53.7911333 145.964441,53.5924667 145.65178,53.4471333 C145.33978,53.3011333 145.000678,53.2291333 144.635797,53.2291333 C144.232576,53.2291333 143.862407,53.2944667 143.525949,53.4251333 C143.189492,53.5564667 142.903932,53.7424667 142.66861,53.9851333 C142.433288,54.2271333 142.248203,54.5158 142.114017,54.8498 C141.979169,55.1844667 141.911746,55.5544667 141.911746,55.9618 C141.911746,56.3691333 141.977186,56.7371333 142.106746,57.0664667 C142.236305,57.3964667 142.418746,57.6791333 142.654068,57.9164667 C142.88939,58.1544667 143.172966,58.3384667 143.504797,58.4691333 C143.835966,58.5998 144.203492,58.6651333 144.607373,58.6651333 C145.039678,58.6651333 145.435627,58.5811333 145.795881,58.4111333 C146.156797,58.2418 146.485322,58.0311333 146.783441,57.7784667 L147.302339,58.5491333 C146.917627,58.8978 146.487966,59.1691333 146.012034,59.3631333 C145.536763,59.5571333 145.039678,59.6538 144.52078,59.6538 C143.972797,59.6538 143.465797,59.5711333 143.000441,59.4064667 C142.533763,59.2424667 142.127898,59.0018 141.782186,58.6871333 C141.436475,58.3724667 141.167441,57.9844667 140.975085,57.5244667 C140.782729,57.0644667 140.686881,56.5431333 140.686881,55.9618" id="Fill-19" fill="#FFFFFF" mask="url(#mask-4)"></path>
                <path d="M150.271032,55.9618 C150.271032,56.3691333 150.323914,56.7371333 150.429676,57.0664667 C150.535439,57.3964667 150.686812,57.6791333 150.883795,57.9164667 C151.080117,58.1544667 151.3161,58.3384667 151.589761,58.4691333 C151.863422,58.5998 152.168812,58.6651333 152.504608,58.6651333 C152.841066,58.6651333 153.146456,58.5998 153.420117,58.4691333 C153.693778,58.3384667 153.9291,58.1544667 154.126083,57.9164667 C154.323066,57.6791333 154.474439,57.3964667 154.580202,57.0664667 C154.685964,56.7371333 154.738846,56.3691333 154.738846,55.9618 C154.738846,55.5544667 154.685964,55.1844667 154.580202,54.8498 C154.474439,54.5158 154.323066,54.2271333 154.126083,53.9851333 C153.9291,53.7424667 153.693778,53.5564667 153.420117,53.4251333 C153.146456,53.2944667 152.841066,53.2291333 152.504608,53.2291333 C152.168812,53.2291333 151.863422,53.2944667 151.589761,53.4251333 C151.3161,53.5564667 151.080117,53.7424667 150.883795,53.9851333 C150.686812,54.2271333 150.535439,54.5158 150.429676,54.8498 C150.323914,55.1844667 150.271032,55.5544667 150.271032,55.9618 M149.046168,55.9618 C149.046168,55.3704667 149.139371,54.8451333 149.3271,54.3844667 C149.514168,53.9244667 149.766676,53.5344667 150.083964,53.2144667 C150.400592,52.8951333 150.768117,52.6524667 151.186541,52.4878 C151.604303,52.3231333 152.04388,52.2411333 152.504608,52.2411333 C152.965998,52.2411333 153.405575,52.3231333 153.823998,52.4878 C154.241761,52.6524667 154.609286,52.8951333 154.925914,53.2144667 C155.243202,53.5344667 155.49571,53.9244667 155.682778,54.3844667 C155.870507,54.8451333 155.964371,55.3704667 155.964371,55.9618 C155.964371,56.5431333 155.870507,57.0644667 155.682778,57.5244667 C155.49571,57.9844667 155.243202,58.3724667 154.925914,58.6871333 C154.609286,59.0018 154.241761,59.2424667 153.823998,59.4064667 C153.405575,59.5711333 152.965998,59.6538 152.504608,59.6538 C152.04388,59.6538 151.604303,59.5711333 151.186541,59.4064667 C150.768117,59.2424667 150.400592,59.0018 150.083964,58.6871333 C149.766676,58.3724667 149.514168,57.9844667 149.3271,57.5244667 C149.139371,57.0644667 149.046168,56.5431333 149.046168,55.9618" id="Fill-20" fill="#FFFFFF" mask="url(#mask-4)"></path>
                <path d="M107.315771,28.3116667 L100.227686,13.595 L105.560771,13.595 C105.560771,13.595 108.429585,21.0543333 108.767364,21.829 C109.104483,22.603 109.442263,23.409 109.779381,24.2476667 L109.91489,24.2476667 C110.274483,23.409 114.200924,13.595 114.200924,13.595 L119.399161,13.595 L112.311076,28.3116667 L112.311076,39.6103333 L107.315771,39.6103333 L107.315771,28.3116667 Z" id="Fill-21" fill="#FFFFFF" mask="url(#mask-4)"></path>
                <polygon id="Fill-22" fill="#FFFFFF" mask="url(#mask-4)" points="97.4504237 46.2092667 122.177085 46.2092667 122.177085 43.8606 97.4504237 43.8606"></polygon>
                <polygon id="Fill-23" fill="#FFFFFF" mask="url(#mask-4)" points="72.6378305 46.2259333 97.3644915 46.2259333 97.3644915 43.8772667 72.6378305 43.8772667"></polygon>
                <path d="M84.6708508,34.6522 C87.8926475,34.6522 89.5042068,33.4915333 89.5042068,31.1688667 C89.5042068,30.0468667 89.1148678,29.2315333 88.3361898,28.7228667 C87.5581729,28.2142 86.3359525,27.9595333 84.6708508,27.9595333 L80.6208,27.9595333 L80.6208,34.6522 L84.6708508,34.6522 Z M84.0977492,23.8888667 C85.5718169,23.8888667 86.6367153,23.6088667 87.2924441,23.0475333 C87.9475119,22.4868667 88.2747153,21.7235333 88.2747153,20.7575333 C88.2747153,19.7928667 87.9402407,19.1008667 87.2719525,18.6835333 C86.6023424,18.2662 85.5579356,18.0575333 84.1380712,18.0575333 L80.6208,18.0575333 L80.6208,23.8888667 L84.0977492,23.8888667 Z M74.6002576,13.5955333 L84.3846305,13.5955333 C85.7767322,13.5955333 87.0670373,13.6928667 88.2542237,13.8888667 C89.4420712,14.0842 90.4725966,14.4308667 91.347122,14.9262 C92.2203254,15.4222 92.9097661,16.0748667 93.4147831,16.8828667 C93.920461,17.6922 94.1729695,18.7095333 94.1729695,19.9362 C94.1729695,20.5102 94.0837322,21.0842 93.9065797,21.6582 C93.7287661,22.2322 93.4491559,22.7675333 93.0670881,23.2628667 C92.6843593,23.7588667 92.2071051,24.2022 91.6333424,24.5935333 C91.0602407,24.9848667 90.3774102,25.2722 89.5861729,25.4542 L89.5861729,25.6108667 C91.4965119,25.9508667 92.944139,26.6028667 93.9270712,27.5682 C94.9100034,28.5335333 95.4018,29.8775333 95.4018,31.5995333 C95.4018,33.5435333 93.881461,39.6102 85.1626475,39.6102 L74.6002576,39.6102 L74.6002576,13.5955333 Z" id="Fill-24" fill="#FFFFFF" mask="url(#mask-4)"></path>
            </g>
        </g>
    </g>
</svg>