<?xml version="1.0" encoding="UTF-8"?>
<svg width="102px" height="58px" viewBox="0 0 102 58" version="1.1" xmlns="http://www.w3.org/2000/svg" xmlns:xlink="http://www.w3.org/1999/xlink">
    <!-- Generator: Sketch 42 (36781) - http://www.bohemiancoding.com/sketch -->
    <title>Logo</title>
    <desc>Created with Sketch.</desc>
    <defs>
        <polygon id="path-1" points="101.879799 0 0 0 0 57.8177833 101.879799 57.8177833 101.879799 0"></polygon>
    </defs>
    <g id="Landing" stroke="none" stroke-width="1" fill="none" fill-rule="evenodd">
        <g id="Landing-expectativa" transform="translate(-811.000000, -58.000000)">
            <g id="Logo" transform="translate(811.000000, 58.000000)">
                <mask id="mask-2" fill="white">
                    <use xlink:href="#path-1"></use>
                </mask>
                <g id="Clip-2"></g>
                <path d="M87.6960994,28.468575 C88.9267385,28.468575 89.9826497,29.5258667 89.9826497,30.8483875 C89.9826497,32.0823979 89.0151586,33.1399917 87.6960994,33.1399917 C86.4618391,33.1399917 85.4059278,32.0823979 85.4059278,30.8483875 C85.4059278,29.5258667 86.4618391,28.468575 87.6960994,28.468575 L87.6960994,28.468575 Z M87.6960994,34.9905542 C90.070768,34.9905542 91.921555,33.1399917 91.921555,30.8483875 C91.921555,28.468575 89.9826497,26.6180125 87.6960994,26.6180125 C85.4059278,26.6180125 83.5569515,28.468575 83.5569515,30.8483875 C83.5569515,33.1399917 85.3175077,34.9905542 87.6960994,34.9905542 L87.6960994,34.9905542 Z M75.7204544,30.8483875 C75.8088746,28.468575 77.6575491,26.6180125 79.9477207,26.6180125 C81.0920521,26.6180125 81.9732355,26.9702417 82.7641882,27.6753042 C82.8526083,27.7632104 82.8526083,27.9402312 82.7641882,28.0275333 L81.8830047,28.9087104 C81.7945846,28.9969187 81.7082769,28.9969187 81.6198568,28.9087104 C81.1783598,28.5570854 80.650555,28.2918562 80.0361408,28.2918562 C78.7134604,28.2918562 77.7438568,29.3497521 77.7438568,30.6713667 C77.7438568,31.9932833 78.7134604,33.0514812 80.0361408,33.0514812 C80.5639456,33.0514812 81.1783598,32.8750646 81.6198568,32.5231375 C81.7082769,32.4346271 81.8830047,32.4346271 81.8830047,32.5231375 L82.7641882,33.4922208 C82.8526083,33.5804292 82.8526083,33.7562417 82.7641882,33.8447521 C81.9732355,34.6380229 81.003632,34.9905542 79.9477207,34.9905542 C77.6575491,34.9905542 75.7204544,33.1399917 75.7204544,30.8483875 L75.7204544,30.8483875 Z M73.1671349,33.9335646 C73.1671349,33.2272938 73.608632,32.7871583 74.2248568,32.7871583 C74.839271,32.7871583 75.3691882,33.3158042 75.3691882,33.9335646 C75.3691882,34.5501167 74.839271,34.9905542 74.2248568,34.9905542 C73.608632,34.9905542 73.1671349,34.4622104 73.1671349,33.9335646 L73.1671349,33.9335646 Z M67.2674308,34.5501167 L67.2674308,26.8820333 L67.3558509,26.8820333 C67.3558509,26.793825 67.444271,26.6180125 67.6189988,26.6180125 L72.1975314,26.6180125 C72.2877621,26.6180125 72.3740698,26.7059187 72.3740698,26.8820333 L72.3740698,27.4991896 C72.3740698,27.5870958 72.2877621,27.7632104 72.1975314,27.7632104 L68.5019929,27.7632104 L68.5019929,30.4070437 L71.5813065,30.4070437 C71.6697266,30.4070437 71.757845,30.4955542 71.757845,30.6713667 L71.757845,31.2891271 C71.757845,31.3767312 71.6697266,31.4646375 71.5813065,31.4646375 L68.5019929,31.4646375 L68.5019929,34.5501167 C68.5019929,34.6380229 68.4117621,34.7262312 68.3254544,34.7262312 L67.5323893,34.7262312 C67.444271,34.7262312 67.2674308,34.6380229 67.2674308,34.5501167 L67.2674308,34.5501167 Z M58.4631408,26.793825 L58.3750225,26.793825 C58.3750225,26.7059187 58.4631408,26.6180125 58.5515609,26.6180125 L58.8165195,26.6180125 L63.8347385,32.4346271 L63.8347385,26.9702417 C63.8347385,26.8820333 63.9231586,26.7059187 64.0978864,26.7059187 L64.8025314,26.7059187 C64.8909515,26.7059187 64.9790698,26.793825 64.9790698,26.9702417 L64.9790698,34.8147417 C64.9790698,34.9026479 64.8909515,34.9905542 64.8025314,34.9905542 L64.5393834,34.9905542 L59.5190521,28.9969187 L59.5190521,34.6380229 C59.5190521,34.7262312 59.4327444,34.8147417 59.344626,34.8147417 L58.6399811,34.8147417 C58.5515609,34.8147417 58.4631408,34.7262312 58.4631408,34.6380229 L58.4631408,26.793825 Z M52.4774308,27.7632104 C54.1495669,27.7632104 55.4704367,29.0860333 55.4704367,30.7601792 C55.4704367,32.4346271 54.1495669,33.7562417 52.4774308,33.7562417 C50.8922059,33.7562417 49.4820107,32.4346271 49.4820107,30.7601792 C49.4820107,29.1739396 50.8028805,27.7632104 52.4774308,27.7632104 L52.4774308,27.7632104 Z M52.4774308,34.9905542 C54.8539101,34.9905542 56.7028864,33.1399917 56.7028864,30.8483875 C56.7028864,28.468575 54.7657917,26.6180125 52.4774308,26.6180125 C50.1875609,26.6180125 48.3376793,28.468575 48.3376793,30.8483875 C48.3376793,33.1399917 50.1875609,34.9905542 52.4774308,34.9905542 L52.4774308,34.9905542 Z M40.2380343,30.8483875 C40.3264544,28.468575 42.1742237,26.6180125 44.464697,26.6180125 C45.6087266,26.6180125 46.4899101,26.9702417 47.281768,27.6753042 C47.3701882,27.7632104 47.3701882,27.9402312 47.281768,28.0275333 L46.753058,28.5570854 C46.6646379,28.6449917 46.5783302,28.6449917 46.4899101,28.5570854 C45.9612,28.1154396 45.1681349,27.7632104 44.464697,27.7632104 C42.7913538,27.7632104 41.5589041,29.1739396 41.5589041,30.7601792 C41.5589041,32.3467208 42.7913538,33.7562417 44.464697,33.7562417 C45.343768,33.7562417 45.8727799,33.4040125 46.4899101,32.9632729 C46.5783302,32.8750646 46.6646379,32.8750646 46.753058,32.9632729 L47.281768,33.4922208 C47.3701882,33.5804292 47.3701882,33.7562417 47.281768,33.8447521 C46.4899101,34.6380229 45.5203065,34.9905542 44.464697,34.9905542 C42.1742237,34.9905542 40.2380343,33.1399917 40.2380343,30.8483875 L40.2380343,30.8483875 Z M32.842129,27.05845 C32.7537089,26.8820333 32.842129,26.7059188 33.0177621,26.7059188 L34.5151704,26.7059188 C34.6035905,26.7059188 34.6908036,26.793825 34.6908036,26.793825 L36.2754249,29.1739396 L37.8612533,26.793825 C37.8612533,26.7059188 37.948768,26.7059188 38.0359811,26.7059188 L39.6227148,26.7059188 C39.7974426,26.7059188 39.8858627,26.8820333 39.7974426,27.05845 L37.1560047,30.9359917 L37.1560047,34.6380229 C37.1560047,34.7262312 37.0684899,34.8147417 36.9800698,34.8147417 L35.5710817,34.8147417 C35.4838686,34.8147417 35.3070284,34.7262312 35.3070284,34.6380229 L35.3070284,30.9359917 L35.3954485,30.9359917 L32.842129,27.05845 Z M28.5282533,31.4646375 L29.4957444,31.4646375 C29.9363361,31.4646375 30.4653479,31.8177729 30.4653479,32.2582104 C30.4653479,32.7871583 30.1119692,33.1399917 29.6725846,33.1399917 L28.5282533,33.1399917 L28.5282533,31.4646375 Z M28.615768,28.2918562 L29.4957444,28.2918562 C29.9363361,28.2918562 30.2876024,28.6449917 30.2876024,29.0860333 C30.2876024,29.6143771 29.9363361,29.9672104 29.4957444,29.9672104 L29.4957444,29.8787 L28.615768,29.8787 L28.615768,28.2918562 Z M27.030845,34.8147417 L29.9363361,34.8147417 C31.3444189,34.8147417 32.4899574,33.9335646 32.4899574,32.6110437 C32.4899574,31.4646375 31.5212592,30.9359917 30.9050343,30.6713667 C31.4319337,30.4070437 32.2259041,29.7022833 32.2259041,28.8211062 C32.2259041,27.5870958 31.1687858,26.6180125 29.760703,26.6180125 L27.030845,26.6180125 C26.9424249,26.6180125 26.8552118,26.793825 26.8552118,26.8820333 L26.8552118,34.6380229 C26.8552118,34.7262312 26.9424249,34.8147417 27.030845,34.8147417 L27.030845,34.8147417 Z M18.3140698,31.6419604 L18.3140698,26.8820333 C18.3140698,26.793825 18.4012828,26.6180125 18.5787266,26.6180125 L19.9862059,26.6180125 C20.0743243,26.6180125 20.1627444,26.7059187 20.1627444,26.8820333 L20.1627444,31.55345 C20.1627444,32.3467208 20.7798746,33.0514812 21.5726379,33.0514812 C22.4520107,33.0514812 23.0691408,32.4346271 23.0691408,31.55345 L23.0691408,26.8820333 C23.0691408,26.793825 23.1575609,26.6180125 23.2438686,26.6180125 L24.6531586,26.6180125 C24.7415787,26.6180125 24.9172118,26.7059187 24.9172118,26.8820333 L24.9172118,31.6419604 C24.9172118,33.4040125 23.4207089,34.9026479 21.5726379,34.9026479 C19.723058,34.9026479 18.3140698,33.4040125 18.3140698,31.6419604 L18.3140698,31.6419604 Z M12.415271,28.2918562 L14.1758272,28.2918562 C14.6164189,28.2918562 15.0570107,28.6449917 15.0570107,29.1739396 C15.0570107,29.7022833 14.6164189,30.1430229 14.1758272,30.1430229 L12.415271,30.1430229 L12.415271,28.2918562 Z M10.8306497,34.8147417 L12.2387325,34.8147417 C12.3271527,34.8147417 12.415271,34.7262312 12.415271,34.6380229 L12.415271,31.6419604 L13.207129,31.6419604 L14.7920521,34.7262312 C14.7920521,34.7262312 14.8801704,34.8147417 14.9676852,34.8147417 L16.5535136,34.8147417 C16.7282414,34.8147417 16.8172651,34.6380229 16.7282414,34.4622104 L15.1442237,31.4646375 C16.2010402,31.0245021 16.9056852,30.1430229 16.9056852,29.0860333 C16.9056852,27.7632104 15.7616556,26.6180125 14.3514604,26.6180125 L10.9178627,26.6180125 C10.7422296,26.6180125 10.6538095,26.793825 10.6538095,26.8820333 L10.5656911,26.8820333 L10.5656911,34.6380229 C10.5656911,34.7262312 10.7422296,34.8147417 10.8306497,34.8147417 L10.8306497,34.8147417 Z M2.55325917,39.4852521 L99.4933953,39.4852521 L99.4933953,21.8583875 L2.55325917,21.8583875 L2.55325917,39.4852521 Z M55.2935964,49.7977729 L58.6399811,42.0420854 L61.9842533,42.0420854 L55.2935964,49.7977729 Z M50.9803243,53.5880125 L46.0870402,42.0420854 L55.9098213,42.0420854 L50.9803243,53.5880125 Z M40.0509337,42.0420854 L43.3568805,42.0420854 L46.6646379,49.7092625 L40.0509337,42.0420854 Z M26.9424249,3.61346042 L31.6096793,14.5425333 L18.4012828,14.5425333 L26.9424249,3.61346042 Z M33.8615254,19.3903667 L20.7017148,19.3903667 L18.7543598,17.1872729 L32.9302473,17.1872729 L33.8615254,19.3903667 Z M48.6901527,2.37975208 L34.0745787,13.8377729 L29.2319929,2.37975208 L48.6901527,2.37975208 Z M66.6116734,17.1872729 L65.7105728,19.3903667 L36.5904781,19.3903667 L35.6595018,17.1872729 L66.6116734,17.1872729 Z M65.1556083,14.5425333 L37.1560047,14.5425333 L52.2124722,2.82079375 L65.1556083,14.5425333 Z M72.8158686,2.37975208 L67.9738864,13.6610542 L55.558555,2.37975208 L72.8158686,2.37975208 Z M83.7337917,17.1872729 L81.7864367,19.3903667 L68.6531822,19.3903667 L69.5868746,17.1872729 L78.0972355,17.1872729 L80.6674544,17.1872729 L83.7337917,17.1872729 Z M75.280768,3.79017917 L83.8200994,14.71895 L80.6674544,14.71895 L78.0972355,14.71895 L70.633129,14.71895 L73.1903716,8.68483542 L75.280768,3.79017917 Z M101.870176,40.7198667 L101.870176,20.6243771 C101.870176,19.9187104 101.34207,19.3903667 100.637425,19.3903667 L85.1313124,19.3903667 L87.4311408,16.7459292 C87.4311408,16.7459292 87.5177503,16.5701167 87.6079811,16.4816062 C87.6960994,16.3937 87.6960994,16.2172833 87.6960994,16.2172833 C87.6960994,15.5342729 87.1661822,14.9832729 87.1661822,14.9832729 L75.7204544,0.352772917 L75.6320343,0.2642625 L75.543916,0.17635625 C75.4573065,0.17635625 75.4573065,0.08845 75.3691882,0.08845 C75.3691882,0.08845 75.280768,0.08845 75.280768,-6.04166667e-05 L75.1042296,-6.04166667e-05 L75.0158095,-6.04166667e-05 L74.7529633,-6.04166667e-05 L27.2945964,-6.04166667e-05 L27.030845,-6.04166667e-05 L26.9424249,-6.04166667e-05 L26.7667917,-6.04166667e-05 C26.7667917,-6.04166667e-05 26.6786734,-6.04166667e-05 26.6786734,0.08845 C26.5911586,0.08845 26.5911586,0.17635625 26.5030402,0.17635625 C26.5030402,0.17635625 26.4146201,0.17635625 26.4146201,0.2642625 L26.3262,0.352772917 L14.8801704,15.0720854 C14.8801704,15.0720854 14.8801704,15.1593875 14.7920521,15.1593875 L14.7039337,15.2472937 L14.7039337,15.3364083 L14.7039337,15.5116167 L14.7039337,15.6010333 L14.7039337,15.7768458 L14.7039337,15.8653562 L14.7039337,16.1293771 L14.7039337,16.2172833 C14.7039337,16.2970333 16.9195669,18.8792417 17.3586497,19.3903667 L1.23359645,19.3903667 C0.528951479,19.3903667 -6.03550296e-05,19.9187104 -6.03550296e-05,20.6243771 L-6.03550296e-05,40.8077729 C-6.03550296e-05,41.5125333 0.528951479,42.0420854 1.23359645,42.0420854 L36.7042473,42.0420854 L50.0110225,57.5540646 L50.0991408,57.6416688 C50.0991408,57.6416688 50.1875609,57.6416688 50.1875609,57.7298771 L50.274774,57.7298771 C50.274774,57.7298771 50.3631941,57.7298771 50.3631941,57.8177833 L50.4513124,57.8177833 L50.5397325,57.8177833 L50.626342,57.8177833 L50.8922059,57.8177833 L51.1550521,57.8177833 L51.2434722,57.8177833 L51.3315905,57.8177833 L51.4200107,57.8177833 C51.4200107,57.8177833 51.5072237,57.8177833 51.5072237,57.7298771 L51.5956438,57.7298771 C51.5956438,57.7298771 51.6843657,57.7298771 51.6843657,57.6416688 L51.7709751,57.5540646 L65.0050225,42.0420854 L100.725845,42.0420854 C101.43049,42.0420854 101.958295,41.4240229 101.870176,40.7198667 L101.870176,40.7198667 Z" id="Fill-1" fill="#F00016" mask="url(#mask-2)"></path>
            </g>
        </g>
    </g>
</svg>