<svg id="Color" xmlns="http://www.w3.org/2000/svg" viewBox="0 0 503.99 129.89"><defs><style>.cls-1{fill:#686868;stroke:#fff;stroke-miterlimit:10;}</style></defs><title>monoku</title><path class="cls-1" d="M2572,667.92c-4.73,0-8.58,5.34-8.58,10.08s3.85,5.58,8.58,5.58a8.59,8.59,0,0,0,8.6-8.58C2580.55,670.25,2576.7,667.92,2572,667.92Z" transform="translate(-2077.06 -563.21)"/><path class="cls-1" d="M2467.44,680.34c-5.21-.2-8.11-4.34-8-6.91,9.3-17.34,12.11-37.75,11.13-44.42-0.39-2.58-2.39-5.26-4.91-5.9a5.23,5.23,0,0,0-6.15,3,169.12,169.12,0,0,0-7.41,21c0,0.07,0,.13,0,0.18a108.94,108.94,0,0,0-3,22.6,38.61,38.61,0,0,0,2.77,16.69c1.9,2.64,6.24,6,16.14,5.77,8.14-.2,21.42-9.17,28.28-17.12a60.71,60.71,0,0,1-1.75-13.81C2487.63,671.83,2475.37,680.64,2467.44,680.34Z" transform="translate(-2077.06 -563.21)"/><path class="cls-1" d="M2557.9,660.68c-1.53-1.1-3-.38-5.47,1.7-5.16,4.38-20.31,17.63-33.74,18.48-6.48.41-9.73-2.5-11-4.34-3.85-5.41-4.35-8.9-2.26-20.63,10.56-19.6,14.57-39.7,14.32-44.74-0.14-2.7-3.18-5.92-5.77-6.74a5.25,5.25,0,0,0-6.41,3,104.11,104.11,0,0,0-8.13,25.73c-1.19,7.68-3.76,16.62-4.37,22.37-0.17.35-.08,1.82-0.25,2.18a62.33,62.33,0,0,0,.54,16l0,0c0,0.08,0,.18,0,0.26a38.07,38.07,0,0,0,3.17,9.92l-0.1.05c3.08,4,9.41,8.33,19.85,7.66,20.89-1.29,38.5-24.06,39.24-25C2559.32,664.28,2560,662.2,2557.9,660.68Z" transform="translate(-2077.06 -563.21)"/><path class="cls-1" d="M2411.93,637.32c13.87-8.8,39.69-16.89,48.64-29.95a24.21,24.21,0,0,0,4.28-18.82,6.6,6.6,0,0,0-7.78-5.32c-9.09,1.28-26.49,19.81-30.56,23.53-1.58,1.45-6.54,5.68-10.88,9.63a207.65,207.65,0,0,0-9.05,23.81l4.82-2.55Zm14.86-18.54c9.22-9.61,22.7-19.44,27.6-22.81a16.8,16.8,0,0,1-2.51,5.46c-4.11,6-17.35,14.08-25.75,18C2426.34,619.24,2426.56,619,2426.78,618.78Z" transform="translate(-2077.06 -563.21)"/><path class="cls-1" d="M2438.5,677.83a9.59,9.59,0,0,1-8.67.17c-9.48-5.13-23.58-35.4-23.58-35.4-1.05,3.85-2.82,9.42-3.46,13.31,4.22,12.72,12.3,29.5,21.39,34.43a17.94,17.94,0,0,0,8.61,2.26,32.12,32.12,0,0,0,9.54-2.19,20.43,20.43,0,0,0,6-4.41,41.53,41.53,0,0,1-2.39-13A31.05,31.05,0,0,1,2438.5,677.83Z" transform="translate(-2077.06 -563.21)"/><path class="cls-1" d="M2430.32,572c1-2.64.3-6.48-2.3-7.59s-6-1.4-7.93,2.38c-0.61,1.22-6,16.91-16.35,42.4a1.42,1.42,0,0,1-.09.5c-1.57,4.07-3.51,9.58-5.58,15.4-0.26.79-5.08,14.13-7,19.32h0.05l-1.23,3.16c-11.71,31.11-13.07,34.66-11.89,37.18a6.44,6.44,0,0,0,4.28,3.59c2.83,0.71,6.82,1.34,7.91-1.28,2.8-6.79,4.86-12.33,8.46-25.51,0.22-.82.46-1.73,0.71-2.71,3.55-20.79,13-43,16.47-49.9C2424.94,589.21,2427.45,579.79,2430.32,572Z" transform="translate(-2077.06 -563.21)"/><path class="cls-1" d="M2347.75,622.43c3,6.23,8.66,12.32,15.67,16.59a44.5,44.5,0,0,0,7.47,3.21,48.21,48.21,0,0,0,10.7,2.24c1.18,0,3.78.05,6.18,0,1.53-4,3.6-9.8,5.18-14.34-2.29,1.16-4.63,2.12-5.67,2.57a16.13,16.13,0,0,1-9.69.82,31.84,31.84,0,0,0-12.85-26c-5.39-3.82-10.95-4.75-14.91-2.47-1.5.86-4.91,3.52-4.36,9.57A22.81,22.81,0,0,0,2347.75,622.43Zm13.72-3.79a21.4,21.4,0,0,1,5.06,9.79c-5.36-3.91-9.48-9.33-10.41-13.7A15.29,15.29,0,0,1,2361.47,618.64Z" transform="translate(-2077.06 -563.21)"/><path class="cls-1" d="M2346.89,674.75a16.57,16.57,0,0,1-13.65,2.21,0.91,0.91,0,0,1-.82-0.56c-2.52-5.11,5.22-23,9.38-32.68,5.07-11.73,7.39-17.12,5.33-21a9.64,9.64,0,0,0-.61-0.94,6.24,6.24,0,0,0-5.93-2.32c-5.47.78-9.55,7.05-18.28,21.16-6.71,10.84-17.63,28.53-25.44,31.18a109.62,109.62,0,0,1,5.37-10.62c5.45-9.92,12.82-20.56,10.54-27.9A10.5,10.5,0,0,0,2306,626c-8.25-2.56-18.16,3.59-31.23,19.24,1.31-3.67,2.4-6.85,3.23-9.51,2.62-8.1,4.32-13.46-.35-16-1.66-.91-5-1.76-8.51,3.07-2.33,3.2-8.09,5.81-14.83,7.36a19.94,19.94,0,0,0-8-13.07c-7.52-5.76-18.38-7.28-25.3-3.55a12.83,12.83,0,0,0-6.78,12.68A1.24,1.24,0,0,0,2214,626a5.29,5.29,0,0,0-7.21,1.84l-1.33,2.28c-12.56,21.1-29.88,43.54-37.57,45.27,0.48-4.52,5-16.19,8.3-23,7.51-15.38,14.22-26.78,8.42-32.6a7.22,7.22,0,0,0-5.8-2.07c-6.91.59-14.77,10.81-31.06,34-2.06,2.92-4.37,6.2-6.65,9.36,5.8-16,9.42-27.87,6.11-35a9.68,9.68,0,0,0-5.53-5.15C2131,617,2119.95,631.37,2103,655.43c-2.39,3.39-5.15,7.32-7.74,10.81,4.69-13.44,13.74-34.74,22.44-53.39a5.27,5.27,0,1,0-9.54-4.46c-0.07.17-11.81,20.26-18.78,37-15.23,36.59-12.29,36.55-9.7,39.18,2.27,2.33,9.82,3.26,13.71,1.51,4.63-2.1,7.24-9,18.23-24.56,6.82-9.63,20.74-29.41,26.23-30.61,1.44,4.53-4.9,21.79-7.65,29.3-5,13.54-7,19.16-3.5,23a6.26,6.26,0,0,0,6.45,1.64c4.83-1.37,10.2-8.52,23.25-27.07,5.12-7.28,12.64-18,18.13-24.37-1.84,4.56-4.56,10.13-6.51,14.12-8,16.29-13.44,27.21-9.69,33.74,1.47,2.58,4.86,3.51,8.1,3.77,6.83,0.51,14.89-5.56,22.58-13.87a24.28,24.28,0,0,0,.49,10.13,12.43,12.43,0,0,0,6.76,7.94c4.94,2.29,10.82,1.81,17.47-1.43,14.39-7,31.69-27.38,38.27-44-1.31.14-7.72,1.1-11.86,0.76-6.71,13.28-20.27,28.55-31,33.79-2.52,1.24-6,2.45-8.43,1.34a1.93,1.93,0,0,1-1.1-1.47c-2.36-7.65,7-28.78,15-42.71l1.31-2.26a3.87,3.87,0,0,0,.36-0.73c1.86,3.05,5.37,6.18,11.94,8.07a43.89,43.89,0,0,0,5.2,1.07c2.58,0,8.21-.07,14.46-0.51,3.76-.29,7.74-0.7,11.4-1.33a53.12,53.12,0,0,0,7.16-2.5c-3.9,11.32-10.37,28.39-16.62,44a5.27,5.27,0,0,0,2.56,6.7c2.47,1.22,7.09.51,8.49-1.85a175.8,175.8,0,0,1,16.78-27.51c16.8-22.07,22.69-21.05,22.73-21l0.15,0.07c1.2,2.63-4.89,13.69-7.47,18.45-5.52,10-9.5,17.27-6,22.75,1.22,1.91,3.76,4.12,9,3.79,11-.74,20.93-13.9,29.88-27.9-4.1,11.12-6,20.13-2.92,26.32a11.38,11.38,0,0,0,7.71,6.12,27.09,27.09,0,0,0,21.9-3.57c11.62-7.47,19.11-23,22.84-37.07a100.13,100.13,0,0,1-10.07-3.22C2362.11,655.78,2355.61,669.16,2346.89,674.75Zm-115.82-44.36c-2.77-.8-6.12-2.3-6.3-4.9-0.13-1.81.55-2.33,1.25-2.7a8.21,8.21,0,0,1,3.85-.8,17.2,17.2,0,0,1,10.05,3.44,9.49,9.49,0,0,1,3.94,6.12A41.33,41.33,0,0,1,2231.07,630.39Z" transform="translate(-2077.06 -563.21)"/></svg>